<svg width="600" height="100" xmlns="http://www.w3.org/2000/svg" xmlns:svg="http://www.w3.org/2000/svg">
 <g>
  <title>Layer 1</title>
  <path fill="none" d="m50.1,57.2c-14.8,0 -26.8,-23.2 -26.8,-8.4c0,14.8 12,26.8 26.8,26.8s26.9,-11.9 26.9,-26.7c0,-14.9 -12,8.3 -26.9,8.3z" id="svg_1"/>
  <path d="m89.7,41.1l7.9,-6.3c-0.9,-2.7 -2,-5.4 -3.3,-7.9l-10,1.2l-12.5,-12.5l1.2,-10c-2.5,-1.3 -5.1,-2.4 -7.9,-3.3l-6.3,7.9l-17.7,0l-6.3,-7.9c-2.7,0.9 -5.4,2 -7.9,3.3l1.2,10l-12.5,12.6l-10,-1.2c-1.3,2.5 -2.4,5.1 -3.3,7.9l7.9,6.3l0,17.7l-7.9,6.3c0.9,2.7 2,5.4 3.3,7.9l10,-1.2l12.5,12.5l-1.2,10c2.5,1.3 5.1,2.4 7.9,3.3l6.3,-7.89999l17.7,0l6.3,7.89999c2.7,-0.89999 5.4,-2 7.9,-3.3l-1.2,-10l12.5,-12.5l10,1.2c1.3,-2.5 2.39999,-5.1 3.3,-7.9l-7.9,-6.3l0,-17.8zm-25,-10.7c3.8,-1.3 7.5,-0.9 8.10001,1c0.6,1.8 -2,4.4 -5.8,5.7c-3.8,1.3 -7.5,0.9 -8.1,-1s1.9,-4.4 5.8,-5.7l-0.00002,0l0.00001,0zm-37.2,0.9c0.6,-1.8 4.2,-2.3 8.1,-1s6.4,3.9 5.8,5.7s-4.2,2.3 -8.1,1c-3.8,-1.3 -6.4,-3.8 -5.8,-5.7zm22.6,44.4c-14.8,0 -26.8,-12 -26.8,-26.8c0,-14.8 12,8.4 26.8,8.4s26.9,-23.3 26.9,-8.4c0,14.8 -12,26.8 -26.9,26.8z" id="svg_2" fill="black"/>
 </g>
 <g>
  <title>Layer 2</title>
  <g stroke="null" id="svg_3">
   <g stroke="null" id="svg_4">
    <path stroke="null" id="svg_5" d="m295.09622,54.00418l-2.4314,-0.7975c-1.43936,-0.46682 -2.41193,-1.80894 -2.41193,-3.32613c0,-1.51719 0.97256,-2.83987 2.4314,-3.32614l2.43137,-0.79749c1.67279,-0.54463 2.68427,-2.21743 2.37308,-3.92913l-0.15561,-0.9142c-0.31128,-1.71169 -1.82843,-2.93712 -3.57904,-2.87877l-2.54807,0.07781c-1.51721,0.05835 -2.89819,-0.8753 -3.4234,-2.29523s-0.05835,-3.01492 1.12817,-3.94857l2.00345,-1.57554c1.38101,-1.06981 1.75058,-2.99547 0.87527,-4.4932l-0.4668,-0.7975c-0.87549,-1.49773 -2.72336,-2.13962 -4.35721,-1.49773l-2.37317,0.95311c-1.41989,0.56409 -3.03427,0.15561 -4.00693,-0.992c-0.9725,-1.14761 -1.08926,-2.80096 -0.29175,-4.08473l1.36157,-2.15908c0.93365,-1.47828 0.603,-3.40393 -0.73914,-4.5321l-0.71973,-0.58353c-1.3421,-1.10871 -3.30667,-1.08926 -4.60989,0.0778l-1.90619,1.69224c-1.12817,1.01145 -2.78149,1.18651 -4.10416,0.42793c-1.32272,-0.7586 -2.00351,-2.25633 -1.69226,-3.73461l0.52518,-2.48974c0.36954,-1.71169 -0.60297,-3.40394 -2.23688,-4.00692l-0.87531,-0.31121c-1.65332,-0.58354 -3.48175,0.1167 -4.29868,1.63389l-1.20596,2.27578c-0.71973,1.32267 -2.21744,2.06181 -3.71515,1.7895c-1.4978,-0.25287 -2.64546,-1.45883 -2.85934,-2.95656l-0.36952,-2.50919c-0.25287,-1.71169 -1.73114,-2.99547 -3.48178,-2.99547l-0.93361,0c-1.75067,0 -3.22888,1.28377 -3.48181,2.99547l-0.35013,2.50919c-0.21393,1.49773 -1.38104,2.68425 -2.87874,2.95656c-1.49768,0.25286 -2.99539,-0.46682 -3.71507,-1.7895l-1.20595,-2.23687c-0.81697,-1.53663 -2.66484,-2.23687 -4.29872,-1.63389l-0.87527,0.33067c-1.65335,0.60299 -2.60643,2.29523 -2.23686,4.00692l0.52516,2.47029c0.31122,1.47828 -0.36955,2.99547 -1.67279,3.73461c-1.32268,0.75859 -2.97603,0.58354 -4.1042,-0.42793l-1.90616,-1.69224c-1.30321,-1.16706 -3.26779,-1.18651 -4.60991,-0.07781l-0.71971,0.60299c-1.34212,1.12817 -1.65332,3.03437 -0.71968,4.51265l1.34213,2.15907c0.7975,1.28378 0.6808,2.93711 -0.29178,4.08473c-0.97255,1.16706 -2.58699,1.55608 -4.00691,0.992l-2.37305,-0.93366c-1.6339,-0.64188 -3.48175,-0.01945 -4.35706,1.49773l-0.46681,0.79749c-0.89473,1.49774 -0.50572,3.4234 0.85585,4.47374l2.00345,1.57554c1.20596,0.93365 1.65332,2.52864 1.12814,3.94856c-0.52519,1.41993 -1.90619,2.35359 -3.42337,2.29523l-2.54811,-0.0778c-1.75061,-0.05835 -3.26779,1.16706 -3.57898,2.87875l-0.15564,0.9142c-0.3112,1.71169 0.70024,3.38449 2.37305,3.92912l2.41194,0.79749c1.43936,0.46684 2.41194,1.80894 2.41194,3.32614c0,1.51718 -0.97255,2.83987 -2.41194,3.32614l-2.41194,0.79749c-1.67281,0.54462 -2.68425,2.21742 -2.37305,3.92911l0.15564,0.91421c0.31119,1.71169 1.82837,2.9371 3.57898,2.87875l2.54811,-0.0778c1.51718,-0.05836 2.89818,0.8753 3.42337,2.29523c0.52518,1.41992 0.05835,3.01492 -1.12814,3.94857l-2.00345,1.55609c-1.38103,1.06982 -1.75061,2.99548 -0.87532,4.49319l0.46684,0.79749c0.87529,1.49773 2.72313,2.13963 4.35703,1.49773l2.37306,-0.9531c1.40047,-0.56409 3.03435,-0.15559 4.00691,0.99201c0.97255,1.16706 1.08925,2.80095 0.29178,4.08471l-1.3616,2.15908c-0.93364,1.47827 -0.62241,3.40394 0.73915,4.53209l0.7197,0.60299c1.34212,1.1087 3.3067,1.08926 4.60991,-0.07781l1.9062,-1.69224c1.12814,-1.01144 2.78149,-1.18652 4.10417,-0.42792c1.32268,0.75859 2.00345,2.25632 1.69223,3.7346l-0.52516,2.48975c-0.36957,1.69224 0.60298,3.40394 2.23686,4.00692l0.87526,0.31123c1.65338,0.60297 3.48178,-0.09726 4.29872,-1.6339l1.20595,-2.23689c0.71971,-1.34212 2.21742,-2.06181 3.71507,-1.78947c1.49774,0.25285 2.66484,1.45882 2.87874,2.95657l0.3696,2.50918c0.25285,1.73116 1.73114,2.99548 3.48175,2.99548l0.93364,0c1.75061,0 3.22888,-1.28378 3.48175,-2.99548l0.36955,-2.50918c0.21399,-1.49773 1.38103,-2.68425 2.87878,-2.95657c1.49774,-0.25288 2.99545,0.46683 3.71515,1.78947l1.20599,2.23689c0.81693,1.53664 2.66467,2.23687 4.29865,1.6339l0.87537,-0.31123c1.65332,-0.60298 2.58698,-2.29523 2.23685,-4.00692l-0.52518,-2.48975c-0.31125,-1.47828 0.36951,-2.99545 1.69223,-3.75406c1.32266,-0.75859 2.97598,-0.58353 4.10422,0.42793l1.90619,1.69224c1.30322,1.16707 3.26776,1.18652 4.60989,0.07782l0.70026,-0.60299c1.3421,-1.1087 1.65329,-3.03438 0.7197,-4.51265l-1.36163,-2.15908c-0.79755,-1.28376 -0.68082,-2.9371 0.29175,-4.08471c0.97272,-1.14761 2.5871,-1.5561 4.00693,-0.99201l2.37323,0.9531c1.63385,0.64188 3.48172,0 4.35718,-1.49773l0.4668,-0.79749c0.87531,-1.51719 0.50574,-3.42339 -0.87527,-4.49319l-2.00345,-1.55609c-1.20593,-0.93365 -1.65335,-2.52863 -1.12814,-3.94857c0.52521,-1.41993 1.90619,-2.35358 3.4234,-2.29523l2.54807,0.0778c1.75061,0.05835 3.26776,-1.18652 3.57904,-2.8982l0.15561,-0.91421c0.29172,-1.73114 -0.7197,-3.40393 -2.39252,-3.94856l0,0.00001l0,0.00003zm-46.19629,-11.0871c3.89021,0 7.04129,3.13162 7.04129,6.98293s-3.15108,6.98293 -7.04129,6.98293s-7.04129,-3.13163 -7.04129,-6.98294s3.15105,-6.98293 7.04129,-6.98293l0,0.00001zm-16.39728,17.50597l-6.82733,9.33651c-0.66132,0.9142 -1.75061,1.45884 -2.87877,1.43938c-1.1476,-0.01945 -2.19794,-0.56406 -2.85927,-1.51717c-3.90968,-5.62137 -6.22435,-12.42924 -6.22435,-19.78174c0,-0.93365 0.44739,-1.80895 1.20595,-2.35358c0.75859,-0.54463 1.73114,-0.70024 2.62593,-0.40848l11.86513,3.83187c1.20596,0.38902 2.10072,1.38102 2.35359,2.60644c0.25284,1.18651 0.62245,2.31468 1.08925,3.38448c0.54463,1.12817 0.38902,2.45083 -0.35013,3.4623l0,-0.00001zm1.26433,-22.75776l-11.0482,-3.55955c-1.08926,-0.35012 -1.92563,-1.20597 -2.27577,-2.29523c-0.35011,-1.08927 -0.1167,-2.25633 0.56409,-3.17053c4.1042,-5.31015 9.68663,-9.41432 16.16383,-11.69009c1.06981,-0.38902 2.27577,-0.21396 3.20943,0.42792c0.93365,0.66134 1.49774,1.71169 1.49774,2.85931l0,11.51503c0,1.24487 -0.66135,2.39248 -1.73114,3.01492c-1.05035,0.60298 -2.02292,1.32268 -2.91769,2.13962c-0.95308,0.87529 -2.27576,1.14762 -3.46228,0.75859l0,0.00001zm27.46495,43.4926c-0.3696,1.06979 -1.22546,1.9062 -2.31473,2.23687c-3.1705,0.95309 -6.51608,1.45884 -10.01727,1.45884s-6.82732,-0.50574 -9.99786,-1.45884c-1.08926,-0.33067 -1.96454,-1.14761 -2.33411,-2.23687c-0.36958,-1.06982 -0.17506,-2.25633 0.48627,-3.17052l6.78838,-9.29762c0.73915,-1.01146 1.98405,-1.5561 3.22885,-1.41993c0.603,0.05834 1.20596,0.09725 1.80902,0.09725s1.22542,-0.03891 1.80893,-0.09725c1.26433,-0.13617 2.48975,0.40847 3.22891,1.41993l6.78838,9.29762c0.7002,0.91418 0.89474,2.10069 0.52524,3.17052zm2.8204,-43.4926c-1.20596,0.38902 -2.52866,0.09725 -3.46231,-0.73914c-0.89478,-0.79749 -1.86731,-1.53663 -2.91766,-2.13961c-1.06979,-0.62244 -1.73114,-1.77005 -1.73114,-3.01492l0,-11.51503c0,-1.12816 0.56406,-2.19797 1.49774,-2.8593c0.93362,-0.66134 2.12015,-0.81694 3.20941,-0.44737c6.47717,2.27577 12.05966,6.37995 16.16385,11.69009c0.70023,0.89475 0.91415,2.08126 0.56406,3.17053c-0.33066,1.08926 -1.18652,1.94511 -2.27579,2.29523l-11.04816,3.55954l0,-0.00001l0,-0.00001zm13.81024,32.01647c-0.64188,0.93365 -1.71173,1.49773 -2.85931,1.51717c-1.14761,0 -2.21744,-0.52518 -2.87878,-1.43938l-6.8273,-9.33651c-0.73917,-1.01145 -0.87531,-2.33413 -0.36957,-3.4623c0.48627,-1.06981 0.8364,-2.21742 1.08926,-3.38448c0.25287,-1.22542 1.16705,-2.21743 2.35358,-2.60645l11.86517,-3.83187c0.89474,-0.29176 1.86731,-0.13615 2.62585,0.40848c0.75861,0.54463 1.20599,1.41993 1.20599,2.35358c0.01944,7.3525 -2.29538,14.16037 -6.20514,19.78175l0,0.00002l0,0l0,-0.00001l0.00003,0l0.00003,0l0.00003,0l0.00003,0l0.00003,0l0.00003,0l0.00003,0l0.00003,0z"/>
   </g>
  </g>
 </g>
 <g>
  <title>Layer 3</title>
  <g id="svg_6" stroke="null">
   <path d="m398,49.52961c0,-1.7444 -1.27399,-3.21441 -2.99884,-3.4496l-5.31158,-0.7644c-1.47003,-0.2156 -2.66559,-1.3328 -2.93994,-2.8028c-0.33325,-1.6856 -0.7644,-3.332 -1.29364,-4.91961c-0.4704,-1.4112 -0.01959,-2.95959 1.15643,-3.8808l4.21393,-3.3124c1.37201,-1.078 1.74445,-2.9988 0.86243,-4.508l-0.4704,-0.8036c-0.86237,-1.5092 -2.72437,-2.1364 -4.3316,-1.4896l-4.99805,2.0188c-1.37201,0.5488 -2.95953,0.1764 -3.93958,-0.9408c-1.11719,-1.274 -2.31281,-2.4696 -3.58673,-3.5868c-1.11725,-0.98 -1.48962,-2.548 -0.94086,-3.9396l1.99927,-4.998c0.64673,-1.6268 0.01953,-3.4692 -1.50928,-4.3316l-0.80359,-0.4704c-1.50916,-0.8624 -3.42999,-0.49 -4.4884,0.882l-3.29279,4.214c-0.92114,1.1564 -2.4696,1.6268 -3.8808,1.1564c-1.60724,-0.5488 -3.2536,-0.9604 -4.93915,-1.2936c-1.47009,-0.294 -2.58728,-1.47 -2.80286,-2.94l-0.7644,-5.3116c-0.25482,-1.7836 -1.72479,-3.0576 -3.46918,-3.0576l-0.9408,0c-1.74438,0 -3.21445,1.274 -3.46918,2.9988l-0.7644,5.3116c-0.21558,1.47 -1.33282,2.6656 -2.80286,2.94c-1.68567,0.3332 -3.33197,0.7644 -4.93921,1.2936c-1.41119,0.4704 -2.9599,0.0196 -3.88089,-1.1564l-3.27304,-4.1748c-1.078,-1.372 -2.99884,-1.7444 -4.50821,-0.8624l-0.80368,0.4704c-1.50931,0.8624 -2.1557,2.7244 -1.48938,4.3316l1.99927,4.998c0.54877,1.372 0.17633,2.9596 -0.94089,3.9396c-1.27417,1.1172 -2.46957,2.3324 -3.60635,3.6064c-0.97998,1.1172 -2.54797,1.4896 -3.93951,0.9408l-4.99805,-2.0188c-1.60724,-0.6468 -3.46924,-0.0196 -4.3316,1.4896l-0.45081,0.8036c-0.86243,1.5092 -0.50964,3.43 0.86237,4.508l4.21399,3.31239c1.15643,0.9212 1.62683,2.4696 1.15643,3.8808c-0.54883,1.6072 -0.97998,3.2536 -1.29358,4.91961c-0.27448,1.46999 -1.47003,2.5872 -2.94,2.8028l-5.33118,0.7644c-1.72485,0.2156 -2.99884,1.6856 -2.99884,3.43l0,0.9408c0,1.7444 1.27399,3.21439 2.99884,3.4692l5.33118,0.7644c1.46997,0.2156 2.66553,1.3328 2.94,2.80279c0.33319,1.6856 0.7644,3.332 1.29358,4.9196c0.4704,1.41121 0.01965,2.95959 -1.15643,3.8612l-4.21399,3.31241c-1.37201,1.078 -1.74438,2.9988 -0.86237,4.50799l0.4704,0.8036c0.86237,1.50919 2.72443,2.13641 4.3316,1.48959l4.99799,-1.99921c1.37201,-0.54879 2.95959,-0.17638 3.93958,0.94081c1.11719,1.27399 2.31287,2.4696 3.58679,3.5868c1.11719,0.98 1.48962,2.548 0.94086,3.9396l-1.99921,4.99801c-0.64679,1.62679 -0.01965,3.46918 1.50916,4.33158l0.80365,0.47041c1.50922,0.8624 3.42993,0.5096 4.4884,-0.8624l3.31238,-4.21399c0.9212,-1.15641 2.4696,-1.6268 3.8808,-1.15641c1.60718,0.54881 3.2536,0.98 4.91962,1.2936c1.46997,0.2744 2.58716,1.47 2.80273,2.94l0.76447,5.3312c0.25476,1.7248 1.72479,2.99879 3.46918,2.99879l0.9408,0c1.74445,0 3.21442,-1.27399 3.46924,-2.99879l0.7644,-5.3312c0.21558,-1.47 1.33282,-2.6656 2.80273,-2.94c1.68555,-0.3332 3.33209,-0.7644 4.91962,-1.2936c1.41119,-0.47039 2.95966,-0.0196 3.86121,1.15641l3.31238,4.21399c1.078,1.372 2.99878,1.74442 4.50809,0.8624l0.80365,-0.47041c1.50937,-0.882 2.13626,-2.7244 1.48984,-4.33158l-2.01886,-4.99801c-0.5488,-1.372 -0.17633,-2.9596 0.9408,-3.9396c1.27399,-1.1172 2.46973,-2.31281 3.58685,-3.5868c0.97998,-1.1172 2.54797,-1.4896 3.93958,-0.94081l4.99805,2.01881c1.62683,0.6468 3.46918,0 4.33154,-1.50919l0.47046,-0.8036c0.86243,-1.50919 0.48999,-3.42999 -0.88208,-4.50799l-4.21399,-3.2928c-1.15637,-0.9212 -1.62683,-2.4696 -1.15637,-3.86119c0.52924,-1.60721 0.96045,-3.2536 1.2937,-4.91961c0.27423,-1.46999 1.46991,-2.58719 2.93988,-2.8028l5.3313,-0.7644c1.72473,-0.2548 2.99878,-1.7248 2.99878,-3.4692l0,-0.9604l0.01953,0l0,0.00002l-0.00003,-0.00001l-0.00003,0l-0.00003,0l-0.00003,0l-0.00003,0l-0.00003,0l-0.00003,0l-0.00003,0l-0.00003,0l-0.00003,0zm-49,24.9704c-13.52399,0 -24.5,-10.97601 -24.5,-24.5s10.97601,-24.5 24.5,-24.5s24.5,10.976 24.5,24.5s-10.95642,24.5 -24.5,24.5z" id="svg_7" stroke="null"/>
  </g>
 </g>
 <g>
  <title>Layer 4</title>
  <g stroke="null" id="svg_8">
   <path stroke="null" id="svg_9" d="m149,1c-27.0676,0 -49,21.9324 -49,49c0,27.0676 21.9324,49 49,49s49,-21.9324 49,-49c0,-27.0676 -21.9324,-49 -49,-49zm0,92.5904c-24.0688,0 -43.59039,-19.5216 -43.59039,-43.5904c0,-24.0688 19.52159,-43.5904 43.59039,-43.5904s43.59039,19.5216 43.59039,43.5904c0,24.0688 -19.50198,43.5904 -43.59039,43.5904z"/>
   <path stroke="null" id="svg_10" d="m149,8.3304c-22.97119,0 -41.6696,18.6984 -41.6696,41.6696c0,22.97121 18.69841,41.6696 41.6696,41.6696c22.97121,0 41.6696,-18.69839 41.6696,-41.6696c0,-22.9712 -18.69839,-41.6696 -41.6696,-41.6696zm-2.07761,45.9424c-1.5876,-0.7644 -2.68521,-2.3912 -2.68521,-4.2532c0,-2.6264 2.13641,-4.7628 4.7628,-4.7628s4.7628,2.1364 4.7628,4.7628c0,2.6264 -2.13638,4.7628 -4.7628,4.7628c-0.6272,0 -1.2348,-0.1372 -1.78357,-0.3528l0.01958,-0.0784l-0.3136,-0.0784zm-0.7056,1.21521l-6.9776,34.24121c-3.88081,-0.96041 -7.54602,-2.4696 -10.89758,-4.4296l17.54199,-30.00761c0.09798,0.0784 0.21559,0.1372 0.33319,0.196zm1.19559,-11.4268l-14.93521,-31.458c3.31239,-1.47 6.84039,-2.5088 10.5448,-3.0576l4.70399,34.4176c-0.11758,0.0196 -0.21559,0.0784 -0.31361,0.098l0.00003,0zm-0.74478,0.2352c-0.72522,0.294 -1.39162,0.7252 -1.9404,1.274l-22.834,-26.166c2.93999,-2.6068 6.27199,-4.802 9.87839,-6.4876l14.89603,31.3796l-0.00002,0zm-3.50841,3.8024l-33.8884,-7.7616c0.9408,-3.9004 2.45,-7.5852 4.42961,-10.9564l30.10561,17.3068c-0.27441,0.4312 -0.49002,0.9212 -0.64682,1.4112zm-0.0784,3.5868l-31.96761,13.72001c-1.4896,-3.64561 -2.4696,-7.56561 -2.842,-11.64241l34.65279,-4.7432c-0.05879,0.3332 -0.09799,0.6468 -0.09799,0.98c0,0.588 0.1176,1.1368 0.25479,1.6856l0.00003,0zm0.2352,0.7448c0.09801,0.2156 0.21561,0.392 0.33321,0.588l-26.1268,23.06921c-2.4892,-2.9988 -4.5668,-6.3504 -6.1152,-9.9764l31.90879,-13.68081zm10.99561,-5.5468l31.30119,-15.092c1.80319,3.626 3.09682,7.546 3.7632,11.6816l-34.96638,3.6064c-0.0392,-0.0588 -0.05881,-0.1176 -0.09801,-0.196zm-0.45079,-0.6468c-0.33322,-0.4312 -0.72522,-0.8232 -1.17601,-1.1564l25.55841,-23.618c2.78319,2.842 5.13521,6.0956 6.99719,9.6432l-31.37959,15.1312zm-1.82281,-1.5876c-0.13719,-0.0784 -0.25479,-0.1568 -0.392,-0.2156l16.64041,-30.4976c3.46921,1.862 6.64441,4.214 9.4276,6.9776l-25.67601,23.7356zm-0.72519,-0.3724c-0.5488,-0.2156 -1.1564,-0.3528 -1.7836,-0.4116l7.62439,-33.9668c3.68481,0.7448 7.1736,1.9992 10.4272,3.6652l-16.62079,30.5172l0.3528,0.196zm0,11.4464l-0.37241,0.196l15.7388,30.968c-4.1356,1.97961 -8.6436,3.2928 -13.4064,3.80241l-3.0968,-34.61361c0.41162,-0.098 0.78401,-0.2156 1.13681,-0.35279l0,-0.00001zm0.33319,-0.15681c0.784,-0.3724 1.45039,-0.9016 2.0188,-1.5484l23.65721,25.4604c-2.94002,2.8224 -6.27199,5.194 -9.93721,7.056l-15.7388,-30.968zm3.46921,-5.0372l34.1432,6.6248c-0.686,3.90039 -1.92081,7.6048 -3.64561,11.0348l-30.5564,-16.6208l-0.25479,0.4508c0.17639,-0.4704 0.2744,-0.9604 0.3136,-1.4896zm0.0392,-0.784c-0.01961,-0.6664 -0.1568,-1.3132 -0.392,-1.9208l34.7312,-3.5868c0.2744,1.8816 0.41161,3.8024 0.41161,5.7428c0,2.1756 -0.17641,4.312 -0.5096,6.3896l-34.24121,-6.6248zm1.25441,-39.9644l-7.644,34.0648c-0.09799,0 -0.17639,0.0196 -0.25479,0.0196l-4.70401,-34.4372c1.7052,-0.2156 3.44963,-0.3528 5.21359,-0.3528c2.50879,0.0196 4.97841,0.2744 7.38921,0.7056zm-35.08398,10.1528l22.67719,25.97l-29.90958,-17.1892c1.99918,-3.2536 4.42958,-6.2132 7.23238,-8.7808l0.00001,0zm-12.2304,21.1484l32.1636,7.3696l-33.02602,4.5276c-0.0784,-0.98 -0.1176,-1.9796 -0.1176,-2.9792c-0.0196,-3.05761 0.33321,-6.0368 0.98,-8.918l0.00002,0l-0.00001,0l0.00001,0zm8.93761,35.59361l26.02882,-22.99081c0.33318,0.4508 0.72519,0.8428 1.17598,1.176l-17.56161,30.0272c-3.62601,-2.2344 -6.87961,-5.0176 -9.6432,-8.21239l0.00002,0l-0.00001,0zm21.952,13.2104l6.9384,-34.0844c0.64682,0.2352 1.33281,0.37241 2.07762,0.37241c0.13721,0 0.2744,-0.0392 0.41159,-0.0392l3.09679,34.61361c-1.15639,0.09799 -2.3324,0.15679 -3.50838,0.15679c-3.0968,0 -6.1152,-0.3724 -9.01602,-1.0192l0,-0.00001zm37.88681,-10.9368l-23.73561,-25.5388c0.2352,-0.3528 0.43121,-0.7252 0.58801,-1.1368l30.53679,16.6012c-1.94037,3.72401 -4.42958,7.11481 -7.38919,10.07441l0,-0.00001z"/>
  </g>
 </g>
 <g>
  <title>Radio</title>
  <circle stroke-opacity="0.3" stroke="#000000" id="svg_11" r="47.30393" cy="50.16667" cx="451.5" stroke-linecap="null" stroke-linejoin="null" stroke-dasharray="null" fill="#ffffff" opacity="0.8"/>
 </g>
 <g>
  <title>Radio Selected</title>
  <circle stroke-opacity="0.3" stroke="#000000" r="47.30393" cy="49.33333" cx="551.00003" stroke-linecap="null" stroke-linejoin="null" stroke-dasharray="null" fill="#ffffff" opacity="0.8" id="svg_12"/>
  <circle fill="#000000" stroke-width="null" stroke-dasharray="null" stroke-linejoin="null" stroke-linecap="null" opacity="0.7" cx="550.99998" cy="49.33333" r="26.80447" id="svg_13"/>
 </g>
</svg>