<?xml version="1.0" encoding="utf-8"?>
<!DOCTYPE svg PUBLIC "-//W3C//DTD SVG 1.1//EN" "http://www.w3.org/Graphics/SVG/1.1/DTD/svg11.dtd">
<svg version="1.1" xmlns="http://www.w3.org/2000/svg" xmlns:xlink="http://www.w3.org/1999/xlink" x="0px" y="0px"
	 width="500px" height="500px" viewBox="0 0 500 500" enable-background="new 0 0 500 500" xml:space="preserve">
<g>
	<g>
		<path d="M500,247.6c0-8.9-6.5-16.4-15.3-17.6l-27.1-3.9c-7.5-1.1-13.6-6.8-15-14.3c-1.7-8.6-3.9-17-6.6-25.1
			c-2.4-7.2-0.1-15.1,5.9-19.8l21.5-16.9c7-5.5,8.9-15.3,4.4-23l-2.4-4.1c-4.4-7.7-13.9-10.9-22.1-7.6l-25.5,10.3
			c-7,2.8-15.1,0.9-20.1-4.8c-5.7-6.5-11.8-12.6-18.3-18.3c-5.7-5-7.6-13-4.8-20.1l10.2-25.5c3.3-8.3,0.1-17.7-7.7-22.1l-4.1-2.4
			c-7.7-4.4-17.5-2.5-22.9,4.5l-16.8,21.5c-4.7,5.9-12.6,8.3-19.8,5.9c-8.2-2.8-16.6-4.9-25.2-6.6c-7.5-1.5-13.2-7.5-14.3-15
			l-3.9-27.1C268.8,6.5,261.3,0,252.4,0h-4.8c-8.9,0-16.4,6.5-17.7,15.3l-3.9,27.1c-1.1,7.5-6.8,13.6-14.3,15
			c-8.6,1.7-17,3.9-25.2,6.6c-7.2,2.4-15.1,0.1-19.8-5.9L150,36.8c-5.5-7-15.3-8.9-23-4.4l-4.1,2.4c-7.7,4.4-11,13.9-7.6,22.1
			l10.2,25.5c2.8,7,0.9,15.1-4.8,20.1c-6.5,5.7-12.6,11.9-18.4,18.4c-5,5.7-13,7.6-20.1,4.8l-25.5-10.3c-8.2-3.3-17.7-0.1-22.1,7.6
			l-2.3,4.1c-4.4,7.7-2.6,17.5,4.4,23l21.5,16.9c5.9,4.7,8.3,12.6,5.9,19.8c-2.8,8.2-5,16.6-6.6,25.1c-1.4,7.5-7.5,13.2-15,14.3
			l-27.2,3.9C6.5,231.2,0,238.7,0,247.6v4.8c0,8.9,6.5,16.4,15.3,17.7l27.2,3.9c7.5,1.1,13.6,6.8,15,14.3c1.7,8.6,3.9,17,6.6,25.1
			c2.4,7.2,0.1,15.1-5.9,19.7l-21.5,16.9c-7,5.5-8.9,15.3-4.4,23l2.4,4.1c4.4,7.7,13.9,10.9,22.1,7.6l25.5-10.2
			c7-2.8,15.1-0.9,20.1,4.8c5.7,6.5,11.8,12.6,18.3,18.3c5.7,5,7.6,13,4.8,20.1l-10.2,25.5c-3.3,8.3-0.1,17.7,7.7,22.1l4.1,2.4
			c7.7,4.4,17.5,2.6,22.9-4.4l16.9-21.5c4.7-5.9,12.6-8.3,19.8-5.9c8.2,2.8,16.6,5,25.1,6.6c7.5,1.4,13.2,7.5,14.3,15l3.9,27.2
			c1.3,8.8,8.8,15.3,17.7,15.3h4.8c8.9,0,16.4-6.5,17.7-15.3l3.9-27.2c1.1-7.5,6.8-13.6,14.3-15c8.6-1.7,17-3.9,25.1-6.6
			c7.2-2.4,15.1-0.1,19.7,5.9l16.9,21.5c5.5,7,15.3,8.9,23,4.4l4.1-2.4c7.7-4.5,10.9-13.9,7.6-22.1l-10.3-25.5
			c-2.8-7-0.9-15.1,4.8-20.1c6.5-5.7,12.6-11.8,18.3-18.3c5-5.7,13-7.6,20.1-4.8l25.5,10.3c8.3,3.3,17.7,0,22.1-7.7l2.4-4.1
			c4.4-7.7,2.5-17.5-4.5-23l-21.5-16.8c-5.9-4.7-8.3-12.6-5.9-19.7c2.7-8.2,4.9-16.6,6.6-25.1c1.4-7.5,7.5-13.2,15-14.3l27.2-3.9
			c8.8-1.3,15.3-8.8,15.3-17.7V247.6z M250,375c-69,0-125-56-125-125s56-125,125-125s125,56,125,125S319.1,375,250,375z"/>
	</g>
</g>
</svg>
