<?xml version="1.0" encoding="utf-8"?>
<!DOCTYPE svg PUBLIC "-//W3C//DTD SVG 1.1//EN" "http://www.w3.org/Graphics/SVG/1.1/DTD/svg11.dtd">
<svg version="1.1" xmlns="http://www.w3.org/2000/svg" xmlns:xlink="http://www.w3.org/1999/xlink" x="0px" y="0px"
	 width="500px" height="500px" viewBox="0 0 500 500" enable-background="new 0 0 500 500" xml:space="preserve">
<g>
	<g>
		<path d="M250,0C111.9,0,0,111.9,0,250c0,138.1,111.9,250,250,250s250-111.9,250-250C500,111.9,388.1,0,250,0z M250,472.4
			c-122.8,0-222.4-99.6-222.4-222.4c0-122.8,99.6-222.4,222.4-222.4S472.4,127.2,472.4,250C472.4,372.8,372.9,472.4,250,472.4z"/>
		<path d="M250,37.4C132.8,37.4,37.4,132.8,37.4,250c0,117.2,95.4,212.6,212.6,212.6c117.2,0,212.6-95.4,212.6-212.6
			C462.6,132.8,367.2,37.4,250,37.4z M239.4,271.8c-8.1-3.9-13.7-12.2-13.7-21.7c0-13.4,10.9-24.3,24.3-24.3s24.3,10.9,24.3,24.3
			c0,13.4-10.9,24.3-24.3,24.3c-3.2,0-6.3-0.7-9.1-1.8l0.1-0.4L239.4,271.8z M235.8,278l-35.6,174.7c-19.8-4.9-38.5-12.6-55.6-22.6
			L234.1,277C234.6,277.4,235.2,277.7,235.8,278z M241.9,219.7L165.7,59.2c16.9-7.5,34.9-12.8,53.8-15.6l24,175.6
			C242.9,219.3,242.4,219.6,241.9,219.7z M238.1,220.9c-3.7,1.5-7.1,3.7-9.9,6.5L111.7,93.9c15-13.3,32-24.5,50.4-33.1L238.1,220.9z
			 M220.2,240.3L47.3,200.7c4.8-19.9,12.5-38.7,22.6-55.9l153.6,88.3C222.1,235.3,221,237.8,220.2,240.3z M219.8,258.6l-163.1,70
			c-7.6-18.6-12.6-38.6-14.5-59.4L219,245c-0.3,1.7-0.5,3.3-0.5,5C218.5,253,219.1,255.8,219.8,258.6z M221,262.4
			c0.5,1.1,1.1,2,1.7,3L89.4,383.1c-12.7-15.3-23.3-32.4-31.2-50.9L221,262.4z M277.1,234.1l159.7-77c9.2,18.5,15.8,38.5,19.2,59.6
			l-178.4,18.4C277.4,234.8,277.3,234.5,277.1,234.1z M274.8,230.8c-1.7-2.2-3.7-4.2-6-5.9l130.4-120.5
			c14.2,14.5,26.2,31.1,35.7,49.2L274.8,230.8z M265.5,222.7c-0.7-0.4-1.3-0.8-2-1.1L348.4,66c17.7,9.5,33.9,21.5,48.1,35.6
			L265.5,222.7z M261.8,220.8c-2.8-1.1-5.9-1.8-9.1-2.1l38.9-173.3c18.8,3.8,36.6,10.2,53.2,18.7L260,219.8L261.8,220.8z
			 M261.8,279.2l-1.9,1l80.3,158c-21.1,10.1-44.1,16.8-68.4,19.4l-15.8-176.6C258.1,280.5,260,279.9,261.8,279.2z M263.5,278.4
			c4-1.9,7.4-4.6,10.3-7.9l120.7,129.9c-15,14.4-32,26.5-50.7,36L263.5,278.4z M281.2,252.7l174.2,33.8
			c-3.5,19.9-9.8,38.8-18.6,56.3L280.9,258l-1.3,2.3C280.5,257.9,281,255.4,281.2,252.7z M281.4,248.7c-0.1-3.4-0.8-6.7-2-9.8
			l177.2-18.3c1.4,9.6,2.1,19.4,2.1,29.3c0,11.1-0.9,22-2.6,32.6L281.4,248.7z M287.8,44.8l-39,173.8c-0.5,0-0.9,0.1-1.3,0.1
			l-24-175.7c8.7-1.1,17.6-1.8,26.6-1.8C262.9,41.3,275.5,42.6,287.8,44.8z M108.8,96.6l115.7,132.5L71.9,141.4
			C82.1,124.8,94.5,109.7,108.8,96.6z M46.4,204.5l164.1,37.6L42,265.2c-0.4-5-0.6-10.1-0.6-15.2C41.3,234.4,43.1,219.2,46.4,204.5z
			 M92,386.1l132.8-117.3c1.7,2.3,3.7,4.3,6,6L141.2,428C122.7,416.6,106.1,402.4,92,386.1z M204,453.5l35.4-173.9
			c3.3,1.2,6.8,1.9,10.6,1.9c0.7,0,1.4-0.2,2.1-0.2l15.8,176.6c-5.9,0.5-11.9,0.8-17.9,0.8C234.2,458.7,218.8,456.8,204,453.5z
			 M397.3,397.7L276.2,267.4c1.2-1.8,2.2-3.7,3-5.8L435,346.3C425.1,365.3,412.4,382.6,397.3,397.7z"/>
	</g>
</g>
</svg>
